<svg aria-hidden="true" style="position: absolute; width: 0; height: 0; overflow: hidden;" version="1.1" xmlns="http://www.w3.org/2000/svg" xmlns:xlink="http://www.w3.org/1999/xlink">
<defs>
<symbol id="icon-chevron-down" viewBox="0 0 24 24">
<path d="M5.293 9.707l6 6c0.391 0.391 1.024 0.391 1.414 0l6-6c0.391-0.391 0.391-1.024 0-1.414s-1.024-0.391-1.414 0l-5.293 5.293-5.293-5.293c-0.391-0.391-1.024-0.391-1.414 0s-0.391 1.024 0 1.414z"></path>
</symbol>

<symbol id="icon-sun" viewBox="0 0 32 32">
<path d="M16 26c1.105 0 2 0.895 2 2v2c0 1.105-0.895 2-2 2s-2-0.895-2-2v-2c0-1.105 0.895-2 2-2zM16 6c-1.105 0-2-0.895-2-2v-2c0-1.105 0.895-2 2-2s2 0.895 2 2v2c0 1.105-0.895 2-2 2zM30 14c1.105 0 2 0.895 2 2s-0.895 2-2 2h-2c-1.105 0-2-0.895-2-2s0.895-2 2-2h2zM6 16c0 1.105-0.895 2-2 2h-2c-1.105 0-2-0.895-2-2s0.895-2 2-2h2c1.105 0 2 0.895 2 2zM25.899 23.071l1.414 1.414c0.781 0.781 0.781 2.047 0 2.828s-2.047 0.781-2.828 0l-1.414-1.414c-0.781-0.781-0.781-2.047 0-2.828s2.047-0.781 2.828 0zM6.101 8.929l-1.414-1.414c-0.781-0.781-0.781-2.047 0-2.828s2.047-0.781 2.828 0l1.414 1.414c0.781 0.781 0.781 2.047 0 2.828s-2.047 0.781-2.828 0zM25.899 8.929c-0.781 0.781-2.047 0.781-2.828 0s-0.781-2.047 0-2.828l1.414-1.414c0.781-0.781 2.047-0.781 2.828 0s0.781 2.047 0 2.828l-1.414 1.414zM6.101 23.071c0.781-0.781 2.047-0.781 2.828 0s0.781 2.047 0 2.828l-1.414 1.414c-0.781 0.781-2.047 0.781-2.828 0s-0.781-2.047 0-2.828l1.414-1.414z"></path>
<path d="M16 8c-4.418 0-8 3.582-8 8s3.582 8 8 8c4.418 0 8-3.582 8-8s-3.582-8-8-8zM16 21c-2.761 0-5-2.239-5-5s2.239-5 5-5 5 2.239 5 5-2.239 5-5 5z"></path>
</symbol>

<symbol id="icon-brightness_3" viewBox="0 0 24 24">
<path d="M9 2.016q4.125 0 7.055 2.93t2.93 7.055-2.93 7.055-7.055 2.93q-1.594 0-3-0.422 3.094-0.938 5.039-3.586t1.945-5.977-1.945-5.977-5.039-3.586q1.406-0.422 3-0.422z"></path>
</symbol>

<symbol id="icon-calendar_today" viewBox="0 0 24 24">
<path d="M20.016 21v-12.984h-16.031v12.984h16.031zM20.016 3q0.797 0 1.383 0.609t0.586 1.406v15.984q0 0.797-0.586 1.406t-1.383 0.609h-16.031q-0.797 0-1.383-0.609t-0.586-1.406v-15.984q0-0.797 0.586-1.406t1.383-0.609h1.031v-2.016h1.969v2.016h10.031v-2.016h1.969v2.016h1.031z"></path>
</symbol>

<symbol id="icon-people_alt" viewBox="0 0 24 24">
<path d="M9 12.984q1.5 0 3.281 0.422t3.258 1.406 1.477 2.203v3h-16.031v-3q0-1.219 1.477-2.203t3.258-1.406 3.281-0.422zM15 12q-0.609 0-1.313-0.234 1.313-1.547 1.313-3.75 0-0.891-0.375-2.016t-0.938-1.781q0.703-0.234 1.313-0.234 1.641 0 2.813 1.195t1.172 2.836-1.172 2.813-2.813 1.172zM5.016 8.016q0-1.641 1.172-2.836t2.813-1.195 2.813 1.195 1.172 2.836-1.172 2.813-2.813 1.172-2.813-1.172-1.172-2.813zM16.688 13.125q2.484 0.375 4.406 1.383t1.922 2.508v3h-4.031v-3q0-2.297-2.297-3.891z"></path>
</symbol>

<symbol id="icon-location_pin" viewBox="0 0 24 24">
<path d="M12 2.016v0q-1.453 0-2.719 0.539t-2.227 1.5-1.5 2.227-0.539 2.719q0 1.313 0.352 2.531t1.055 2.297q0.703 1.172 1.57 2.203t1.57 2.203q0.375 0.563 0.633 1.102t0.539 1.148q0.141 0.281 0.281 0.633t0.375 0.609 0.609 0.258v0q0.375 0 0.609-0.258t0.375-0.609 0.281-0.633q0.281-0.609 0.539-1.148t0.633-1.102q0.703-1.125 1.57-2.18t1.57-2.227q0.703-1.078 1.055-2.297t0.352-2.531q0-1.453-0.539-2.719t-1.5-2.227-2.227-1.5-2.719-0.539zM12 11.766q-1.031 0-1.758-0.75t-0.727-1.781 0.727-1.758 1.758-0.727 1.758 0.727 0.727 1.758-0.727 1.781-1.758 0.75z"></path>
</symbol>

<symbol id="icon-explore" viewBox="0 0 24 24">
<path d="M14.203 14.203l3.797-8.203-8.203 3.797-3.797 8.203zM12 2.016q4.125 0 7.055 2.93t2.93 7.055-2.93 7.055-7.055 2.93-7.055-2.93-2.93-7.055 2.93-7.055 7.055-2.93zM12 10.922q0.469 0 0.773 0.305t0.305 0.773-0.305 0.773-0.773 0.305-0.773-0.305-0.305-0.773 0.305-0.773 0.773-0.305z"></path>
</symbol>


<symbol id="icon-battery-charging" viewBox="0 0 24 24">
<path d="M5 17h-2c-0.276 0-0.525-0.111-0.707-0.293s-0.293-0.431-0.293-0.707v-8c0-0.276 0.111-0.525 0.293-0.707s0.431-0.293 0.707-0.293h3.19c0.552 0 1-0.448 1-1s-0.448-1-1-1h-3.19c-0.828 0-1.58 0.337-2.121 0.879s-0.879 1.293-0.879 2.121v8c0 0.828 0.337 1.58 0.879 2.121s1.293 0.879 2.121 0.879h2c0.552 0 1-0.448 1-1s-0.448-1-1-1zM15 7h2c0.276 0 0.525 0.111 0.707 0.293s0.293 0.431 0.293 0.707v8c0 0.276-0.111 0.525-0.293 0.707s-0.431 0.293-0.707 0.293h-3.19c-0.552 0-1 0.448-1 1s0.448 1 1 1h3.19c0.828 0 1.58-0.337 2.121-0.879s0.879-1.293 0.879-2.121v-8c0-0.828-0.337-1.58-0.879-2.121s-1.293-0.879-2.121-0.879h-2c-0.552 0-1 0.448-1 1s0.448 1 1 1zM24 13v-2c0-0.552-0.448-1-1-1s-1 0.448-1 1v2c0 0.552 0.448 1 1 1s1-0.448 1-1zM10.168 5.445l-4 6c-0.306 0.46-0.182 1.080 0.277 1.387 0.172 0.115 0.367 0.169 0.555 0.168h4.131l-2.964 4.445c-0.306 0.46-0.182 1.080 0.277 1.387s1.080 0.182 1.387-0.277l4-6c0.106-0.156 0.169-0.348 0.169-0.555 0-0.552-0.448-1-1-1h-4.131l2.964-4.445c0.306-0.46 0.182-1.080-0.277-1.387s-1.080-0.182-1.387 0.277z"></path>
</symbol>
<symbol id="icon-camera" viewBox="0 0 24 24">
<path d="M24 19v-11c0-0.828-0.337-1.58-0.879-2.121s-1.293-0.879-2.121-0.879h-3.465l-1.703-2.555c-0.182-0.27-0.486-0.445-0.832-0.445h-6c-0.326 0.002-0.64 0.158-0.832 0.445l-1.703 2.555h-3.465c-0.828 0-1.58 0.337-2.121 0.879s-0.879 1.293-0.879 2.121v11c0 0.828 0.337 1.58 0.879 2.121s1.293 0.879 2.121 0.879h18c0.828 0 1.58-0.337 2.121-0.879s0.879-1.293 0.879-2.121zM22 19c0 0.276-0.111 0.525-0.293 0.707s-0.431 0.293-0.707 0.293h-18c-0.276 0-0.525-0.111-0.707-0.293s-0.293-0.431-0.293-0.707v-11c0-0.276 0.111-0.525 0.293-0.707s0.431-0.293 0.707-0.293h4c0.346 0 0.65-0.175 0.832-0.445l1.703-2.555h4.93l1.703 2.555c0.192 0.287 0.506 0.443 0.832 0.445h4c0.276 0 0.525 0.111 0.707 0.293s0.293 0.431 0.293 0.707zM17 13c0-1.38-0.561-2.632-1.464-3.536s-2.156-1.464-3.536-1.464-2.632 0.561-3.536 1.464-1.464 2.156-1.464 3.536 0.561 2.632 1.464 3.536 2.156 1.464 3.536 1.464 2.632-0.561 3.536-1.464 1.464-2.156 1.464-3.536zM15 13c0 0.829-0.335 1.577-0.879 2.121s-1.292 0.879-2.121 0.879-1.577-0.335-2.121-0.879-0.879-1.292-0.879-2.121 0.335-1.577 0.879-2.121 1.292-0.879 2.121-0.879 1.577 0.335 2.121 0.879 0.879 1.292 0.879 2.121z"></path>
</symbol>
<symbol id="icon-heart" viewBox="0 0 24 24">
<path d="M20.133 5.317c0.88 0.881 1.319 2.031 1.319 3.184s-0.44 2.303-1.319 3.182l-8.133 8.133-8.133-8.133c-0.879-0.879-1.318-2.029-1.318-3.183s0.439-2.304 1.318-3.183 2.029-1.318 3.183-1.318 2.304 0.439 3.183 1.318l1.060 1.060c0.391 0.391 1.024 0.391 1.414 0l1.062-1.062c0.879-0.879 2.029-1.318 3.182-1.317s2.303 0.44 3.182 1.319zM21.547 3.903c-1.269-1.269-2.934-1.904-4.596-1.905s-3.327 0.634-4.597 1.903l-0.354 0.355-0.353-0.353c-1.269-1.269-2.935-1.904-4.597-1.904s-3.328 0.635-4.597 1.904-1.904 2.935-1.904 4.597 0.635 3.328 1.904 4.597l8.84 8.84c0.391 0.391 1.024 0.391 1.414 0l8.84-8.84c1.269-1.269 1.904-2.934 1.905-4.596s-0.634-3.327-1.905-4.598z"></path>
</symbol>
<symbol id="icon-shield" viewBox="0 0 24 24">
<path d="M12 20.862c-1.184-0.672-4.42-2.695-6.050-5.549-0.079-0.138-0.153-0.276-0.223-0.417-0.456-0.911-0.727-1.878-0.727-2.896v-6.307l7-2.625 7 2.625v6.307c0 1.018-0.271 1.985-0.726 2.897-0.070 0.14-0.145 0.279-0.223 0.417-1.631 2.854-4.867 4.876-6.050 5.549zM12.447 22.894c0 0 4.989-2.475 7.34-6.589 0.096-0.168 0.188-0.34 0.276-0.515 0.568-1.135 0.937-2.408 0.937-3.79v-7c0-0.426-0.267-0.79-0.649-0.936l-8-3c-0.236-0.089-0.485-0.082-0.702 0l-8 3c-0.399 0.149-0.646 0.527-0.649 0.936v7c0 1.382 0.369 2.655 0.938 3.791 0.087 0.175 0.179 0.346 0.276 0.515 2.351 4.114 7.34 6.589 7.34 6.589 0.292 0.146 0.62 0.136 0.894 0z"></path>
</symbol>
<symbol id="icon-truck" viewBox="0 0 24 24">
<path d="M15 15h-13v-11h13v4zM17 9h2.586l2.414 2.414v3.586h-5zM7 18.5c0 0.414-0.167 0.788-0.439 1.061s-0.647 0.439-1.061 0.439-0.788-0.167-1.061-0.439-0.439-0.647-0.439-1.061 0.167-0.788 0.439-1.061 0.647-0.439 1.061-0.439 0.788 0.167 1.061 0.439 0.439 0.647 0.439 1.061zM22 18.5c0-0.537-0.121-1.045-0.337-1.5h1.337c0.552 0 1-0.448 1-1v-5c0-0.256-0.098-0.512-0.293-0.707l-3-3c-0.181-0.181-0.431-0.293-0.707-0.293h-3v-4c0-0.552-0.448-1-1-1h-15c-0.552 0-1 0.448-1 1v13c0 0.552 0.448 1 1 1h1.337c-0.216 0.455-0.337 0.963-0.337 1.5 0 0.966 0.393 1.843 1.025 2.475s1.509 1.025 2.475 1.025 1.843-0.393 2.475-1.025 1.025-1.509 1.025-2.475c0-0.537-0.121-1.045-0.337-1.5h6.674c-0.216 0.455-0.337 0.963-0.337 1.5 0 0.966 0.393 1.843 1.025 2.475s1.509 1.025 2.475 1.025 1.843-0.393 2.475-1.025 1.025-1.509 1.025-2.475zM20 18.5c0 0.414-0.167 0.788-0.439 1.061s-0.647 0.439-1.061 0.439-0.788-0.167-1.061-0.439-0.439-0.647-0.439-1.061 0.167-0.788 0.439-1.061 0.647-0.439 1.061-0.439 0.788 0.167 1.061 0.439 0.439 0.647 0.439 1.061z"></path>
</symbol>
<symbol id="icon-wifi" viewBox="0 0 24 24">
<path d="M5.64 13.318c1.962-1.634 4.361-2.389 6.733-2.305 2.167 0.077 4.31 0.855 6.071 2.308 0.426 0.351 1.056 0.291 1.408-0.135s0.291-1.056-0.135-1.408c-2.107-1.738-4.674-2.671-7.272-2.763-2.846-0.101-5.731 0.806-8.084 2.767-0.424 0.353-0.482 0.984-0.128 1.408s0.984 0.482 1.408 0.128zM2.081 9.75c2.937-2.589 6.6-3.82 10.236-3.737 3.443 0.079 6.859 1.337 9.604 3.739 0.416 0.364 1.047 0.322 1.411-0.094s0.322-1.047-0.094-1.411c-3.108-2.72-6.977-4.145-10.876-4.234-4.119-0.094-8.275 1.303-11.603 4.237-0.415 0.365-0.454 0.997-0.089 1.411s0.997 0.454 1.411 0.089zM9.109 16.925c0.99-0.704 2.146-0.995 3.274-0.906 0.891 0.070 1.765 0.378 2.523 0.909 0.452 0.317 1.076 0.207 1.393-0.245s0.207-1.076-0.245-1.393c-1.053-0.738-2.269-1.167-3.513-1.265-1.58-0.125-3.204 0.285-4.59 1.269-0.45 0.32-0.556 0.944-0.236 1.394s0.944 0.556 1.394 0.236zM12 21c0.552 0 1-0.448 1-1s-0.448-1-1-1-1 0.448-1 1 0.448 1 1 1z"></path>
</symbol>

<symbol id="icon-google3" viewBox="0 0 32 32">
<path d="M16 0c-8.838 0-16 7.162-16 16s7.162 16 16 16 16-7.163 16-16-7.163-16-16-16zM16.238 28c-6.631 0-12-5.369-12-12s5.369-12 12-12c3.238 0 5.95 1.181 8.037 3.138l-3.256 3.138c-0.894-0.856-2.45-1.85-4.781-1.85-4.1 0-7.438 3.394-7.438 7.575s3.344 7.575 7.438 7.575c4.75 0 6.531-3.413 6.806-5.175h-6.806v-4.113h11.331c0.1 0.6 0.188 1.2 0.188 1.988 0.006 6.856-4.588 11.725-11.519 11.725z"></path>
</symbol>
<symbol id="icon-facebook" viewBox="0 0 32 32">
<path d="M19 6h5v-6h-5c-3.86 0-7 3.14-7 7v3h-4v6h4v16h6v-16h5l1-6h-6v-3c0-0.542 0.458-1 1-1z"></path>
</symbol>
<symbol id="icon-instagram" viewBox="0 0 32 32">
<path d="M16 2.881c4.275 0 4.781 0.019 6.462 0.094 1.563 0.069 2.406 0.331 2.969 0.55 0.744 0.288 1.281 0.638 1.837 1.194 0.563 0.563 0.906 1.094 1.2 1.838 0.219 0.563 0.481 1.412 0.55 2.969 0.075 1.688 0.094 2.194 0.094 6.463s-0.019 4.781-0.094 6.463c-0.069 1.563-0.331 2.406-0.55 2.969-0.288 0.744-0.637 1.281-1.194 1.837-0.563 0.563-1.094 0.906-1.837 1.2-0.563 0.219-1.413 0.481-2.969 0.55-1.688 0.075-2.194 0.094-6.463 0.094s-4.781-0.019-6.463-0.094c-1.563-0.069-2.406-0.331-2.969-0.55-0.744-0.288-1.281-0.637-1.838-1.194-0.563-0.563-0.906-1.094-1.2-1.837-0.219-0.563-0.481-1.413-0.55-2.969-0.075-1.688-0.094-2.194-0.094-6.463s0.019-4.781 0.094-6.463c0.069-1.563 0.331-2.406 0.55-2.969 0.288-0.744 0.638-1.281 1.194-1.838 0.563-0.563 1.094-0.906 1.838-1.2 0.563-0.219 1.412-0.481 2.969-0.55 1.681-0.075 2.188-0.094 6.463-0.094zM16 0c-4.344 0-4.887 0.019-6.594 0.094-1.7 0.075-2.869 0.35-3.881 0.744-1.056 0.412-1.95 0.956-2.837 1.85-0.894 0.888-1.438 1.781-1.85 2.831-0.394 1.019-0.669 2.181-0.744 3.881-0.075 1.713-0.094 2.256-0.094 6.6s0.019 4.887 0.094 6.594c0.075 1.7 0.35 2.869 0.744 3.881 0.413 1.056 0.956 1.95 1.85 2.837 0.887 0.887 1.781 1.438 2.831 1.844 1.019 0.394 2.181 0.669 3.881 0.744 1.706 0.075 2.25 0.094 6.594 0.094s4.888-0.019 6.594-0.094c1.7-0.075 2.869-0.35 3.881-0.744 1.050-0.406 1.944-0.956 2.831-1.844s1.438-1.781 1.844-2.831c0.394-1.019 0.669-2.181 0.744-3.881 0.075-1.706 0.094-2.25 0.094-6.594s-0.019-4.887-0.094-6.594c-0.075-1.7-0.35-2.869-0.744-3.881-0.394-1.063-0.938-1.956-1.831-2.844-0.887-0.887-1.781-1.438-2.831-1.844-1.019-0.394-2.181-0.669-3.881-0.744-1.712-0.081-2.256-0.1-6.6-0.1v0z"></path>
<path d="M16 7.781c-4.537 0-8.219 3.681-8.219 8.219s3.681 8.219 8.219 8.219 8.219-3.681 8.219-8.219c0-4.537-3.681-8.219-8.219-8.219zM16 21.331c-2.944 0-5.331-2.387-5.331-5.331s2.387-5.331 5.331-5.331c2.944 0 5.331 2.387 5.331 5.331s-2.387 5.331-5.331 5.331z"></path>
<path d="M26.462 7.456c0 1.060-0.859 1.919-1.919 1.919s-1.919-0.859-1.919-1.919c0-1.060 0.859-1.919 1.919-1.919s1.919 0.859 1.919 1.919z"></path>
</symbol>
<symbol id="icon-whatsapp" viewBox="0 0 32 32">
<path d="M27.281 4.65c-2.994-3-6.975-4.65-11.219-4.65-8.738 0-15.85 7.112-15.85 15.856 0 2.794 0.731 5.525 2.119 7.925l-2.25 8.219 8.406-2.206c2.319 1.262 4.925 1.931 7.575 1.931h0.006c0 0 0 0 0 0 8.738 0 15.856-7.113 15.856-15.856 0-4.238-1.65-8.219-4.644-11.219zM16.069 29.050v0c-2.369 0-4.688-0.637-6.713-1.837l-0.481-0.288-4.987 1.306 1.331-4.863-0.313-0.5c-1.325-2.094-2.019-4.519-2.019-7.012 0-7.269 5.912-13.181 13.188-13.181 3.519 0 6.831 1.375 9.319 3.862 2.488 2.494 3.856 5.8 3.856 9.325-0.006 7.275-5.919 13.188-13.181 13.188zM23.294 19.175c-0.394-0.2-2.344-1.156-2.706-1.288s-0.625-0.2-0.894 0.2c-0.262 0.394-1.025 1.288-1.256 1.556-0.231 0.262-0.462 0.3-0.856 0.1s-1.675-0.619-3.188-1.969c-1.175-1.050-1.975-2.35-2.206-2.744s-0.025-0.613 0.175-0.806c0.181-0.175 0.394-0.463 0.594-0.694s0.262-0.394 0.394-0.662c0.131-0.262 0.069-0.494-0.031-0.694s-0.894-2.15-1.219-2.944c-0.319-0.775-0.65-0.669-0.894-0.681-0.231-0.012-0.494-0.012-0.756-0.012s-0.694 0.1-1.056 0.494c-0.363 0.394-1.387 1.356-1.387 3.306s1.419 3.831 1.619 4.1c0.2 0.262 2.794 4.269 6.769 5.981 0.944 0.406 1.681 0.65 2.256 0.837 0.95 0.3 1.813 0.256 2.494 0.156 0.762-0.113 2.344-0.956 2.675-1.881s0.331-1.719 0.231-1.881c-0.094-0.175-0.356-0.275-0.756-0.475z"></path>
</symbol>
<symbol id="icon-twitter" viewBox="0 0 32 32">
<path d="M32 7.075c-1.175 0.525-2.444 0.875-3.769 1.031 1.356-0.813 2.394-2.1 2.887-3.631-1.269 0.75-2.675 1.3-4.169 1.594-1.2-1.275-2.906-2.069-4.794-2.069-3.625 0-6.563 2.938-6.563 6.563 0 0.512 0.056 1.012 0.169 1.494-5.456-0.275-10.294-2.888-13.531-6.862-0.563 0.969-0.887 2.1-0.887 3.3 0 2.275 1.156 4.287 2.919 5.463-1.075-0.031-2.087-0.331-2.975-0.819 0 0.025 0 0.056 0 0.081 0 3.181 2.263 5.838 5.269 6.437-0.55 0.15-1.131 0.231-1.731 0.231-0.425 0-0.831-0.044-1.237-0.119 0.838 2.606 3.263 4.506 6.131 4.563-2.25 1.762-5.075 2.813-8.156 2.813-0.531 0-1.050-0.031-1.569-0.094 2.913 1.869 6.362 2.95 10.069 2.95 12.075 0 18.681-10.006 18.681-18.681 0-0.287-0.006-0.569-0.019-0.85 1.281-0.919 2.394-2.075 3.275-3.394z"></path>
</symbol>

<symbol id="icon-circle-right" viewBox="0 0 32 32">
<path d="M16 0c-8.837 0-16 7.163-16 16s7.163 16 16 16 16-7.163 16-16-7.163-16-16-16zM16 29c-7.18 0-13-5.82-13-13s5.82-13 13-13 13 5.82 13 13-5.82 13-13 13z"></path>
<path d="M11.086 22.086l2.829 2.829 8.914-8.914-8.914-8.914-2.828 2.828 6.086 6.086z"></path>
</symbol>

<symbol id="icon-circle-left" viewBox="0 0 32 32">
<path d="M16 32c8.837 0 16-7.163 16-16s-7.163-16-16-16-16 7.163-16 16 7.163 16 16 16zM16 3c7.18 0 13 5.82 13 13s-5.82 13-13 13-13-5.82-13-13 5.82-13 13-13z"></path>
<path d="M20.914 9.914l-2.829-2.829-8.914 8.914 8.914 8.914 2.828-2.828-6.086-6.086z"></path>
</symbol>

<symbol id="icon-category" viewBox="0 0 24 24">
<path d="M3 13.5h8.016v8.016h-8.016v-8.016zM12.984 17.484q0-1.875 1.313-3.188t3.188-1.313 3.188 1.313 1.313 3.188-1.313 3.188-3.188 1.313-3.188-1.313-1.313-3.188zM12 2.016l5.484 9h-10.969z"></path>
</symbol>

<symbol id="icon-menu_book" viewBox="0 0 24 24">
<path d="M17.484 14.344q1.219 0 2.531 0.234v1.5q-0.938-0.234-2.531-0.234-2.813 0-4.5 0.984v-1.688q1.781-0.797 4.5-0.797zM12.984 12.469q1.969-0.797 4.5-0.797 1.219 0 2.531 0.234v1.5q-0.938-0.234-2.531-0.234-2.813 0-4.5 0.984v-1.688zM17.484 10.5q-2.813 0-4.5 0.984v-1.641q1.875-0.844 4.5-0.844 1.219 0 2.531 0.234v1.547q-1.125-0.281-2.531-0.281zM21 18.516v-11.531q-1.547-0.469-3.516-0.469-3.047 0-5.484 1.5v11.484q2.438-1.5 5.484-1.5 1.828 0 3.516 0.516zM17.484 4.5q3.563 0 5.531 1.5v14.578q0 0.188-0.164 0.352t-0.352 0.164q-0.141 0-0.234-0.047-1.922-1.031-4.781-1.031-3.047 0-5.484 1.5-2.016-1.5-5.484-1.5-2.531 0-4.781 1.078-0.047 0-0.117 0.023t-0.117 0.023q-0.188 0-0.352-0.141t-0.164-0.328v-14.672q2.016-1.5 5.531-1.5 3.469 0 5.484 1.5 2.016-1.5 5.484-1.5z"></path>
</symbol>

<symbol id="icon-volunteer_activism" viewBox="0 0 24 24">
<path d="M20.016 17.016q0.844 0 1.43 0.586t0.586 1.383l-8.016 3-7.031-1.969v-9h1.969l7.266 2.672q0.797 0.328 0.797 1.125 0 0.469-0.352 0.82t-0.867 0.352h-2.813l-1.734-0.656-0.328 0.938 2.063 0.75h7.031zM15.984 3.234q1.078-1.219 2.719-1.219 1.359 0 2.32 0.961t0.961 2.32q0 1.031-0.984 2.461t-1.969 2.391-3.047 2.836q-2.063-1.875-3.047-2.836t-1.969-2.391-0.984-2.461q0-1.359 0.984-2.32t2.344-0.961q1.594 0 2.672 1.219zM0.984 11.016h4.031v10.969h-4.031v-10.969z"></path>
</symbol>

<symbol id="icon-contact_page" viewBox="0 0 24 24">
<path d="M14.016 2.016h-8.016q-0.844 0-1.43 0.586t-0.586 1.383v16.031q0 0.797 0.586 1.383t1.43 0.586h12q0.844 0 1.43-0.586t0.586-1.383v-12zM12 9.984q0.844 0 1.43 0.586t0.586 1.43-0.586 1.43-1.43 0.586-1.43-0.586-0.586-1.43 0.586-1.43 1.43-0.586zM15.984 18h-7.969v-0.563q0-0.609 0.328-1.125t0.891-0.75q0.609-0.281 1.313-0.422t1.453-0.141 1.453 0.141 1.313 0.422q0.563 0.234 0.891 0.75t0.328 1.125v0.563z"></path>
</symbol>

<symbol id="icon-extension" viewBox="0 0 24 24">
<path d="M20.484 11.016q1.031 0 1.781 0.727t0.75 1.758-0.75 1.758-1.781 0.727h-1.5v4.031q0 0.797-0.586 1.383t-1.383 0.586h-3.797v-1.5q0-1.125-0.797-1.898t-1.922-0.773-1.922 0.773-0.797 1.898v1.5h-3.797q-0.797 0-1.383-0.586t-0.586-1.383v-3.797h1.5q1.125 0 1.898-0.797t0.773-1.922-0.773-1.922-1.898-0.797h-1.5v-3.797q0-0.797 0.586-1.383t1.383-0.586h4.031v-1.5q0-1.031 0.727-1.781t1.758-0.75 1.758 0.75 0.727 1.781v1.5h4.031q0.797 0 1.383 0.586t0.586 1.383v4.031h1.5z"></path>
</symbol>

<symbol id="icon-log-out" viewBox="0 0 24 24">
<path d="M9 20h-4c-0.276 0-0.525-0.111-0.707-0.293s-0.293-0.431-0.293-0.707v-14c0-0.276 0.111-0.525 0.293-0.707s0.431-0.293 0.707-0.293h4c0.552 0 1-0.448 1-1s-0.448-1-1-1h-4c-0.828 0-1.58 0.337-2.121 0.879s-0.879 1.293-0.879 2.121v14c0 0.828 0.337 1.58 0.879 2.121s1.293 0.879 2.121 0.879h4c0.552 0 1-0.448 1-1s-0.448-1-1-1zM18.586 11h-9.586c-0.552 0-1 0.448-1 1s0.448 1 1 1h9.586l-3.293 3.293c-0.391 0.391-0.391 1.024 0 1.414s1.024 0.391 1.414 0l5-5c0.092-0.092 0.166-0.202 0.217-0.324 0.15-0.362 0.078-0.795-0.217-1.090l-5-5c-0.391-0.391-1.024-0.391-1.414 0s-0.391 1.024 0 1.414z"></path>
</symbol>

<symbol id="icon-x-circle" viewBox="0 0 24 24">
<path d="M23 12c0-3.037-1.232-5.789-3.222-7.778s-4.741-3.222-7.778-3.222-5.789 1.232-7.778 3.222-3.222 4.741-3.222 7.778 1.232 5.789 3.222 7.778 4.741 3.222 7.778 3.222 5.789-1.232 7.778-3.222 3.222-4.741 3.222-7.778zM21 12c0 2.486-1.006 4.734-2.636 6.364s-3.878 2.636-6.364 2.636-4.734-1.006-6.364-2.636-2.636-3.878-2.636-6.364 1.006-4.734 2.636-6.364 3.878-2.636 6.364-2.636 4.734 1.006 6.364 2.636 2.636 3.878 2.636 6.364zM8.293 9.707l2.293 2.293-2.293 2.293c-0.391 0.391-0.391 1.024 0 1.414s1.024 0.391 1.414 0l2.293-2.293 2.293 2.293c0.391 0.391 1.024 0.391 1.414 0s0.391-1.024 0-1.414l-2.293-2.293 2.293-2.293c0.391-0.391 0.391-1.024 0-1.414s-1.024-0.391-1.414 0l-2.293 2.293-2.293-2.293c-0.391-0.391-1.024-0.391-1.414 0s-0.391 1.024 0 1.414z"></path>
</symbol>

<symbol id="icon-user" viewBox="0 0 24 24">
<path d="M21 21v-2c0-1.38-0.561-2.632-1.464-3.536s-2.156-1.464-3.536-1.464h-8c-1.38 0-2.632 0.561-3.536 1.464s-1.464 2.156-1.464 3.536v2c0 0.552 0.448 1 1 1s1-0.448 1-1v-2c0-0.829 0.335-1.577 0.879-2.121s1.292-0.879 2.121-0.879h8c0.829 0 1.577 0.335 2.121 0.879s0.879 1.292 0.879 2.121v2c0 0.552 0.448 1 1 1s1-0.448 1-1zM17 7c0-1.38-0.561-2.632-1.464-3.536s-2.156-1.464-3.536-1.464-2.632 0.561-3.536 1.464-1.464 2.156-1.464 3.536 0.561 2.632 1.464 3.536 2.156 1.464 3.536 1.464 2.632-0.561 3.536-1.464 1.464-2.156 1.464-3.536zM15 7c0 0.829-0.335 1.577-0.879 2.121s-1.292 0.879-2.121 0.879-1.577-0.335-2.121-0.879-0.879-1.292-0.879-2.121 0.335-1.577 0.879-2.121 1.292-0.879 2.121-0.879 1.577 0.335 2.121 0.879 0.879 1.292 0.879 2.121z"></path>
</symbol>

<symbol id="icon-calendar" viewBox="0 0 24 24">
<path d="M7 2v1h-2c-0.828 0-1.58 0.337-2.121 0.879s-0.879 1.293-0.879 2.121v14c0 0.828 0.337 1.58 0.879 2.121s1.293 0.879 2.121 0.879h14c0.828 0 1.58-0.337 2.121-0.879s0.879-1.293 0.879-2.121v-14c0-0.828-0.337-1.58-0.879-2.121s-1.293-0.879-2.121-0.879h-2v-1c0-0.552-0.448-1-1-1s-1 0.448-1 1v1h-6v-1c0-0.552-0.448-1-1-1s-1 0.448-1 1zM20 9h-16v-3c0-0.276 0.111-0.525 0.293-0.707s0.431-0.293 0.707-0.293h2v1c0 0.552 0.448 1 1 1s1-0.448 1-1v-1h6v1c0 0.552 0.448 1 1 1s1-0.448 1-1v-1h2c0.276 0 0.525 0.111 0.707 0.293s0.293 0.431 0.293 0.707zM4 11h16v9c0 0.276-0.111 0.525-0.293 0.707s-0.431 0.293-0.707 0.293h-14c-0.276 0-0.525-0.111-0.707-0.293s-0.293-0.431-0.293-0.707z"></path>
</symbol>

<symbol id="icon-clock" viewBox="0 0 24 24">
<path d="M23 12c0-3.037-1.232-5.789-3.222-7.778s-4.741-3.222-7.778-3.222-5.789 1.232-7.778 3.222-3.222 4.741-3.222 7.778 1.232 5.789 3.222 7.778 4.741 3.222 7.778 3.222 5.789-1.232 7.778-3.222 3.222-4.741 3.222-7.778zM21 12c0 2.486-1.006 4.734-2.636 6.364s-3.878 2.636-6.364 2.636-4.734-1.006-6.364-2.636-2.636-3.878-2.636-6.364 1.006-4.734 2.636-6.364 3.878-2.636 6.364-2.636 4.734 1.006 6.364 2.636 2.636 3.878 2.636 6.364zM11 6v6c0 0.389 0.222 0.727 0.553 0.894l4 2c0.494 0.247 1.095 0.047 1.342-0.447s0.047-1.095-0.447-1.342l-3.448-1.723v-5.382c0-0.552-0.448-1-1-1s-1 0.448-1 1z"></path>
</symbol>



<symbol id="icon-star" viewBox="0 0 24 24">
<path d="M12.897 1.557c-0.092-0.189-0.248-0.352-0.454-0.454-0.495-0.244-1.095-0.041-1.339 0.454l-2.858 5.789-6.391 0.935c-0.208 0.029-0.411 0.127-0.571 0.291-0.386 0.396-0.377 1.029 0.018 1.414l4.623 4.503-1.091 6.362c-0.036 0.207-0.006 0.431 0.101 0.634 0.257 0.489 0.862 0.677 1.351 0.42l5.714-3.005 5.715 3.005c0.186 0.099 0.408 0.139 0.634 0.101 0.544-0.093 0.91-0.61 0.817-1.155l-1.091-6.362 4.623-4.503c0.151-0.146 0.259-0.344 0.292-0.572 0.080-0.546-0.298-1.054-0.845-1.134l-6.39-0.934zM12 4.259l2.193 4.444c0.151 0.305 0.436 0.499 0.752 0.547l4.906 0.717-3.549 3.457c-0.244 0.238-0.341 0.569-0.288 0.885l0.837 4.883-4.386-2.307c-0.301-0.158-0.647-0.148-0.931 0l-4.386 2.307 0.837-4.883c0.058-0.336-0.059-0.661-0.288-0.885l-3.549-3.457 4.907-0.718c0.336-0.049 0.609-0.26 0.752-0.546z"></path>
</symbol>

<symbol id="icon-trending-up" viewBox="0 0 24 24">
<path d="M17 7h3.586l-7.086 7.086-4.293-4.293c-0.391-0.391-1.024-0.391-1.414 0l-7.5 7.5c-0.391 0.391-0.391 1.024 0 1.414s1.024 0.391 1.414 0l6.793-6.793 4.293 4.293c0.391 0.391 1.024 0.391 1.414 0l7.793-7.793v3.586c0 0.552 0.448 1 1 1s1-0.448 1-1v-6c0-0.136-0.027-0.265-0.076-0.383s-0.121-0.228-0.216-0.323c-0.001-0.001-0.001-0.001-0.002-0.002-0.092-0.092-0.202-0.166-0.323-0.216-0.118-0.049-0.247-0.076-0.383-0.076h-6c-0.552 0-1 0.448-1 1s0.448 1 1 1z"></path>
</symbol>


<symbol id="icon-verified" viewBox="0 0 24 24">
<path d="M23.016 12l-2.438-2.813 0.328-3.656-3.609-0.844-1.875-3.188-3.422 1.453-3.422-1.453-1.875 3.188-3.609 0.797 0.328 3.703-2.438 2.813 2.438 2.813-0.328 3.656 3.609 0.844 1.875 3.188 3.422-1.453 3.422 1.453 1.875-3.188 3.609-0.844-0.328-3.656zM10.078 16.734l-3.797-3.844 1.5-1.453 2.297 2.344 5.859-5.906 1.5 1.5z"></path>
</symbol>

<symbol id="icon-shopping-cart" viewBox="0 0 24 24">
<path d="M11 21c0-0.552-0.225-1.053-0.586-1.414s-0.862-0.586-1.414-0.586-1.053 0.225-1.414 0.586-0.586 0.862-0.586 1.414 0.225 1.053 0.586 1.414 0.862 0.586 1.414 0.586 1.053-0.225 1.414-0.586 0.586-0.862 0.586-1.414zM22 21c0-0.552-0.225-1.053-0.586-1.414s-0.862-0.586-1.414-0.586-1.053 0.225-1.414 0.586-0.586 0.862-0.586 1.414 0.225 1.053 0.586 1.414 0.862 0.586 1.414 0.586 1.053-0.225 1.414-0.586 0.586-0.862 0.586-1.414zM7.221 7h14.57l-1.371 7.191c-0.046 0.228-0.166 0.425-0.332 0.568-0.18 0.156-0.413 0.246-0.688 0.241h-9.734c-0.232 0.003-0.451-0.071-0.626-0.203-0.19-0.143-0.329-0.351-0.379-0.603zM1 2h3.18l0.848 4.239c0.108 0.437 0.502 0.761 0.972 0.761h1.221l-0.4-2h-0.821c-0.552 0-1 0.448-1 1 0 0.053 0.004 0.105 0.012 0.155 0.004 0.028 0.010 0.057 0.017 0.084l1.671 8.347c0.149 0.751 0.57 1.383 1.14 1.811 0.521 0.392 1.17 0.613 1.854 0.603h9.706c0.748 0.015 1.455-0.261 1.995-0.727 0.494-0.426 0.848-1.013 0.985-1.683l1.602-8.402c0.103-0.543-0.252-1.066-0.795-1.17-0.065-0.013-0.13-0.019-0.187-0.018h-16.18l-0.84-4.196c-0.094-0.462-0.497-0.804-0.98-0.804h-4c-0.552 0-1 0.448-1 1s0.448 1 1 1z"></path>
</symbol>

<symbol id="icon-users" viewBox="0 0 24 24">
<path d="M18 21v-2c0-1.38-0.561-2.632-1.464-3.536s-2.156-1.464-3.536-1.464h-8c-1.38 0-2.632 0.561-3.536 1.464s-1.464 2.156-1.464 3.536v2c0 0.552 0.448 1 1 1s1-0.448 1-1v-2c0-0.829 0.335-1.577 0.879-2.121s1.292-0.879 2.121-0.879h8c0.829 0 1.577 0.335 2.121 0.879s0.879 1.292 0.879 2.121v2c0 0.552 0.448 1 1 1s1-0.448 1-1zM14 7c0-1.38-0.561-2.632-1.464-3.536s-2.156-1.464-3.536-1.464-2.632 0.561-3.536 1.464-1.464 2.156-1.464 3.536 0.561 2.632 1.464 3.536 2.156 1.464 3.536 1.464 2.632-0.561 3.536-1.464 1.464-2.156 1.464-3.536zM12 7c0 0.829-0.335 1.577-0.879 2.121s-1.292 0.879-2.121 0.879-1.577-0.335-2.121-0.879-0.879-1.292-0.879-2.121 0.335-1.577 0.879-2.121 1.292-0.879 2.121-0.879 1.577 0.335 2.121 0.879 0.879 1.292 0.879 2.121zM24 21v-2c-0.001-1.245-0.457-2.385-1.215-3.261-0.652-0.753-1.528-1.311-2.529-1.576-0.534-0.141-1.081 0.177-1.222 0.711s0.177 1.081 0.711 1.222c0.607 0.161 1.136 0.498 1.528 0.952 0.454 0.526 0.726 1.206 0.727 1.952v2c0 0.552 0.448 1 1 1s1-0.448 1-1zM15.752 4.099c0.803 0.206 1.445 0.715 1.837 1.377s0.531 1.47 0.325 2.273c-0.176 0.688-0.575 1.256-1.105 1.652-0.314 0.235-0.675 0.409-1.063 0.511-0.534 0.14-0.854 0.687-0.713 1.221s0.687 0.854 1.221 0.713c0.637-0.167 1.232-0.455 1.752-0.844 0.884-0.66 1.552-1.613 1.845-2.758 0.342-1.337 0.11-2.689-0.542-3.788s-1.725-1.953-3.062-2.296c-0.535-0.137-1.080 0.186-1.217 0.721s0.186 1.080 0.721 1.217z"></path>
</symbol>

<symbol id="icon-map" viewBox="0 0 24 24">
<path d="M7 3.723v13.697l-5 2.857v-13.697zM17 20.277v-13.697l5-2.857v13.696zM15.535 22.885c0.082 0.043 0.17 0.075 0.263 0.094 0.033 0.007 0.067 0.012 0.101 0.015s0.068 0.005 0.102 0.005c-0.001 0.001-0.001 0.001-0.001 0.001s0 0 0.001 0c0.173 0 0.344-0.046 0.496-0.132l0.015-0.009 6.985-3.991c0.32-0.183 0.501-0.518 0.503-0.868v-16c0-0.552-0.448-1-1-1-0.183 0-0.354 0.049-0.496 0.132l-6.535 3.734-7.503-3.752c-0.083-0.042-0.171-0.075-0.264-0.094-0.034-0.007-0.067-0.012-0.101-0.015s-0.068-0.005-0.102-0.005c0.001 0 0.001 0 0.001 0s0 0-0.001 0c-0.173 0-0.344 0.046-0.495 0.132l-0.015 0.008-6.985 3.992c-0.321 0.183-0.502 0.518-0.504 0.868v16c0 0.552 0.448 1 1 1 0.183 0 0.354-0.049 0.496-0.132l6.535-3.734zM15 6.618v13.764l-6-3v-13.764z"></path>
</symbol>


<symbol id="icon-database" viewBox="0 0 24 24">
<path d="M4 5.002c0 0 0.003-0.095 0.213-0.288 0.245-0.225 0.671-0.483 1.306-0.73 1.499-0.585 3.821-0.984 6.481-0.984s4.982 0.399 6.482 0.984c0.634 0.247 1.061 0.505 1.306 0.73 0.205 0.189 0.212 0.281 0.212 0.288 0 0.003-0.007 0.095-0.213 0.284-0.245 0.225-0.671 0.483-1.306 0.73-1.499 0.585-3.821 0.984-6.481 0.984s-4.982-0.399-6.482-0.984c-0.634-0.247-1.061-0.505-1.306-0.73-0.208-0.192-0.212-0.284-0.212-0.284zM20 14.532v4.471c-0.041 0.097-0.096 0.181-0.217 0.291-0.245 0.225-0.671 0.482-1.303 0.728-1.495 0.582-3.809 0.978-6.48 0.978s-4.985-0.396-6.48-0.978c-0.633-0.246-1.058-0.503-1.303-0.728-0.12-0.11-0.176-0.194-0.199-0.242l-0.006-4.514c0.248 0.126 0.51 0.242 0.782 0.348 1.797 0.699 4.377 1.114 7.206 1.114s5.409-0.415 7.206-1.114c0.277-0.108 0.543-0.225 0.794-0.354zM20 7.527v4.463c0 0.004 0 0.008 0 0.013-0.041 0.097-0.096 0.181-0.217 0.291-0.245 0.225-0.671 0.482-1.303 0.728-1.495 0.582-3.809 0.978-6.48 0.978s-4.985-0.396-6.48-0.978c-0.633-0.246-1.058-0.503-1.303-0.728-0.12-0.11-0.176-0.194-0.199-0.242-0.001-0.040-0.004-0.079-0.009-0.117l-0.005-4.407c0.248 0.128 0.513 0.244 0.788 0.352 1.801 0.702 4.388 1.12 7.208 1.12s5.407-0.418 7.208-1.12c0.276-0.108 0.542-0.225 0.792-0.353zM2 5v14c0 0.058 0.002 0.116 0.007 0.174 0.057 0.665 0.425 1.197 0.857 1.594 0.498 0.457 1.175 0.824 1.93 1.118 1.797 0.699 4.377 1.114 7.206 1.114s5.409-0.415 7.206-1.114c0.755-0.294 1.432-0.661 1.93-1.118 0.432-0.397 0.8-0.929 0.857-1.594 0.005-0.058 0.007-0.116 0.007-0.174v-14c0-0.056-0.002-0.112-0.007-0.168-0.055-0.664-0.422-1.195-0.852-1.59-0.498-0.459-1.177-0.827-1.933-1.122-1.801-0.702-4.388-1.12-7.208-1.12s-5.407 0.418-7.208 1.12c-0.756 0.295-1.435 0.664-1.933 1.122-0.43 0.395-0.797 0.927-0.852 1.59-0.005 0.056-0.007 0.112-0.007 0.168z"></path>
</symbol>

</defs>
</svg>



